# xmcd
#
# Track frame offsets: 
#        150
#        17944
#        35616
#        53400
#        68595
#        90810
#        106274
#        120177
#        137308
#        153674
#        176665
#        192997
#
# Disc length: 2843 seconds
#
# Revision: 0
# Processed by: cddbd v1.5.2PL0 Copyright (c) Steve Scherf et al.
# Submitted via: ExactAudioCopyFreeDBPlugin 1.0
#
DISCID=8a0b190c
DTITLE=My Man Marley - Maestro
DYEAR=2016
DGENRE=Reggae
TTITLE0=All the way
TTITLE1=Get high
TTITLE2=Fancy things
TTITLE3=Love over all
TTITLE4=Keepers of the light
TTITLE5=We are feat Mathis Yahu
TTITLE6=Destructive love affair
TTITLE7=Rasmantic
TTITLE8=Mary Jane
TTITLE9=Champagne Dreams feat Kreesha
TTITLE10=The chant
TTITLE11=Valley of death
EXTD=
EXTT0=
EXTT1=
EXTT2=
EXTT3=
EXTT4=
EXTT5=
EXTT6=
EXTT7=
EXTT8=
EXTT9=
EXTT10=
EXTT11=
PLAYORDER=
